<?xml version="1.0" encoding="utf-8"?>
<!-- Generator: Adobe Illustrator 27.5.0, SVG Export Plug-In . SVG Version: 6.00 Build 0)  -->
<svg version="1.1" id="Layer_1" xmlns="http://www.w3.org/2000/svg" xmlns:xlink="http://www.w3.org/1999/xlink" x="0px" y="0px"
	width="20" height="20" viewBox="0 0 4000 4000" style="enable-background:new 0 0 4000 4000;" xml:space="preserve">
<g>
	<g>
		<defs>
			<path id="SVGID_1_" d="M2626.889,795.216c0,0-61.388,56.377-32.225,129.293c29.164,72.917,160.413,41.665,197.915,156.25
				c18.275,55.828-5.995,99.79-41.457,124.168c-128.24,88.133-260.905-193.47-273.127-263.75
				C2469.661,893.263,2525.914,768.26,2626.889,795.216"/>
		</defs>
		<clipPath id="SVGID_00000049221103984841393340000008934563724477789071_">
			<use xlink:href="#SVGID_1_"  style="overflow:visible;"/>
		</clipPath>
		
			<linearGradient id="SVGID_00000105403101287209720400000016513408498446190514_" gradientUnits="userSpaceOnUse" x1="1440.1847" y1="154.9331" x2="3290.186" y2="1504.9321">
			<stop  offset="0" style="stop-color:#027800"/>
			<stop  offset="1" style="stop-color:#D7F241"/>
		</linearGradient>
		
			<rect x="2469.661" y="768.26" style="clip-path:url(#SVGID_00000049221103984841393340000008934563724477789071_);fill:url(#SVGID_00000105403101287209720400000016513408498446190514_);" width="20" height="20"/>
	</g>
	<g>
		<defs>
			<path id="SVGID_00000109740742442326892820000005211611518538609803_" d="M2035.441,572.485l54.729,204.242h-258.97
				l214.48,214.478c13.596,13.602,29.555,23.495,46.582,29.684c20.835,7.573,43.272,9.605,64.962,6.09
				c7.947-1.285,15.788-3.317,23.418-6.09c4.139-1.502,8.22-3.227,12.214-5.174l94.388-94.388l48.52-48.52l48.52-48.52
				l94.388-94.388c1.946-3.993,3.67-8.075,5.173-12.213c2.774-7.63,4.805-15.472,6.09-23.418c3.515-21.69,1.483-44.127-6.09-64.962
				c-6.19-17.026-16.082-32.985-29.683-46.581l-214.478-214.478v258.968L2035.441,572.485z"/>
		</defs>
		<clipPath id="SVGID_00000065762642114258282250000013897199495965996461_">
			<use xlink:href="#SVGID_00000109740742442326892820000005211611518538609803_"  style="overflow:visible;"/>
		</clipPath>
		
			<linearGradient id="SVGID_00000173144146219833752920000010706047281193024400_" gradientUnits="userSpaceOnUse" x1="4378.3203" y1="1541.2179" x2="1186.6556" y2="328.7159">
			<stop  offset="0" style="stop-color:#027800"/>
			<stop  offset="1" style="stop-color:#D7F241"/>
		</linearGradient>
		
			<rect x="1831.199" y="368.245" style="clip-path:url(#SVGID_00000065762642114258282250000013897199495965996461_);fill:url(#SVGID_00000173144146219833752920000010706047281193024400_);" width="662.25" height="662.248"/>
	</g>
	<g>
		<defs>
			<path id="SVGID_00000179605256102479905860000011290164839047679130_" d="M2220.766,2756.749l837.255,875.003h262.818
				c-167.446-121.777-474.77-361.215-587.574-554.168c-158.333-270.832-66.667-687.506-66.667-687.506L2220.766,2756.749z"/>
		</defs>
		<clipPath id="SVGID_00000062162280783102641140000004506807510008277900_">
			<use xlink:href="#SVGID_00000179605256102479905860000011290164839047679130_"  style="overflow:visible;"/>
		</clipPath>
		
			<linearGradient id="SVGID_00000145747921157470038350000006311526933311487932_" gradientUnits="userSpaceOnUse" x1="556.4404" y1="1964.8147" x2="6148.2671" y2="4606.4829">
			<stop  offset="0" style="stop-color:#027800"/>
			<stop  offset="1" style="stop-color:#D7F241"/>
		</linearGradient>
		
			<rect x="2220.766" y="2390.077" style="clip-path:url(#SVGID_00000062162280783102641140000004506807510008277900_);fill:url(#SVGID_00000145747921157470038350000006311526933311487932_);" width="1100.073" height="1241.674"/>
	</g>
	<g>
		<defs>
			<path id="SVGID_00000097473339695088636270000006920447386037803417_" d="M1919.343,2542.464l-24.013,1089.288h144.845
				c-15.577-177.105-19.497-369.591,14.693-500.031c79.55-303.468,439.001-533.281,439.001-533.281L1919.343,2542.464z"/>
		</defs>
		<clipPath id="SVGID_00000013183579742827981530000001523087831170997678_">
			<use xlink:href="#SVGID_00000097473339695088636270000006920447386037803417_"  style="overflow:visible;"/>
		</clipPath>
		
			<linearGradient id="SVGID_00000009558468919565026720000007099760296140040065_" gradientUnits="userSpaceOnUse" x1="1331.8842" y1="2834.3306" x2="4759.0488" y2="3838.4971">
			<stop  offset="0" style="stop-color:#027800"/>
			<stop  offset="1" style="stop-color:#D7F241"/>
		</linearGradient>
		
			<rect x="1895.33" y="2542.464" style="clip-path:url(#SVGID_00000013183579742827981530000001523087831170997678_);fill:url(#SVGID_00000009558468919565026720000007099760296140040065_);" width="598.539" height="1089.288"/>
	</g>
	<g>
		<defs>
			<path id="SVGID_00000134232749504415492710000017855731166002398092_" d="M1173.066,2629.709c0,0-50.225-454.185,301.988-590.13
				c352.215-135.945,624.677,523.321,624.677,523.321l-160.658,129.761C1939.073,2692.662,1633.423,2221.874,1173.066,2629.709"/>
		</defs>
		<clipPath id="SVGID_00000031177143622391900130000011240305604915913876_">
			<use xlink:href="#SVGID_00000134232749504415492710000017855731166002398092_"  style="overflow:visible;"/>
		</clipPath>
		
			<linearGradient id="SVGID_00000009592505078165913380000015753241451164171925_" gradientUnits="userSpaceOnUse" x1="2827.1304" y1="2241.3953" x2="-29.37" y2="2374.7305">
			<stop  offset="0" style="stop-color:#027800"/>
			<stop  offset="1" style="stop-color:#D7F241"/>
		</linearGradient>
		
			<rect x="1122.842" y="1903.634" style="clip-path:url(#SVGID_00000031177143622391900130000011240305604915913876_);fill:url(#SVGID_00000009592505078165913380000015753241451164171925_);" width="976.89" height="789.028"/>
	</g>
	<g>
		<defs>
			<path id="SVGID_00000059988802476430295960000016180521656989052859_" d="M920.826,2225.489c0,0-174.998-391.668,300-575.003
				c474.997-183.335,854.168,591.672,854.168,591.672l-216.667,174.997C1858.328,2417.154,1541.66,1675.488,920.826,2225.489"/>
		</defs>
		<clipPath id="SVGID_00000177448249230957168720000001362897294738795426_">
			<use xlink:href="#SVGID_00000059988802476430295960000016180521656989052859_"  style="overflow:visible;"/>
		</clipPath>
		
			<linearGradient id="SVGID_00000138575063687279481900000011562051994688125084_" gradientUnits="userSpaceOnUse" x1="3150.9351" y1="1874.5643" x2="146.6024" y2="1991.229">
			<stop  offset="0" style="stop-color:#027800"/>
			<stop  offset="1" style="stop-color:#D7F241"/>
		</linearGradient>
		
			<rect x="745.828" y="1467.151" style="clip-path:url(#SVGID_00000177448249230957168720000001362897294738795426_);fill:url(#SVGID_00000138575063687279481900000011562051994688125084_);" width="1329.166" height="950.003"/>
	</g>
	<g>
		<defs>
			<path id="SVGID_00000124137346434986669270000002038720332738197127_" d="M2072.925,2148.429
				c0,0,102.066-747.945-335.433-1043.778c-437.498-295.833-1054.166,20.83-1058.333,608.335c0,0,133.336-145.833,541.668-62.5
				c408.33,83.333,675.003,362.5,795.834,604.166C2137.493,2496.321,2249.996,2442.156,2072.925,2148.429"/>
		</defs>
		<clipPath id="SVGID_00000173143528035904061210000006759489000757630138_">
			<use xlink:href="#SVGID_00000124137346434986669270000002038720332738197127_"  style="overflow:visible;"/>
		</clipPath>
		
			<linearGradient id="SVGID_00000072276830549143842630000009283022946718672568_" gradientUnits="userSpaceOnUse" x1="3789.2056" y1="2793.104" x2="222.374" y2="1043.106">
			<stop  offset="0" style="stop-color:#027800"/>
			<stop  offset="1" style="stop-color:#D7F241"/>
		</linearGradient>
		
			<rect x="679.158" y="808.818" style="clip-path:url(#SVGID_00000173143528035904061210000006759489000757630138_);fill:url(#SVGID_00000072276830549143842630000009283022946718672568_);" width="1570.838" height="1687.502"/>
	</g>
	<g>
		<defs>
			<path id="SVGID_00000023266570705975583010000004804199119540125569_" d="M2678.141,758.835c0,0-325.001-51.038-418.753,63.543
				c-93.752,114.58-63.549,544.795-44.797,721.88c18.75,177.085,52.086,439.587-141.667,604.172
				c-193.754,164.585-660.43,514.583-660.43,514.583s179.164,345.832,641.665,295.832c462.5-49.998,716.668-574.998,783.335-741.665
				c66.667-166.668-175.002-687.501-225-858.335C2562.496,1188.01,2399.996,929.673,2678.141,758.835"/>
		</defs>
		<clipPath id="SVGID_00000002358069322882302270000016197251908231140003_">
			<use xlink:href="#SVGID_00000023266570705975583010000004804199119540125569_"  style="overflow:visible;"/>
		</clipPath>
		
			<linearGradient id="SVGID_00000114062460544973844550000000905314897662444446_" gradientUnits="userSpaceOnUse" x1="1156.8604" y1="3958.0149" x2="2881.8582" y2="341.3517">
			<stop  offset="0" style="stop-color:#027800"/>
			<stop  offset="1" style="stop-color:#D7F241"/>
		</linearGradient>
		
			<rect x="1412.494" y="707.796" style="clip-path:url(#SVGID_00000002358069322882302270000016197251908231140003_);fill:url(#SVGID_00000114062460544973844550000000905314897662444446_);" width="1491.666" height="2301.047"/>
	</g>
	<path style="opacity:0.3;fill-rule:evenodd;clip-rule:evenodd;fill:#013B01;" d="M2203.683,1004.886
		c9.217-80.083,26.408-146.707,55.705-182.508c39.425-48.19,119.753-67.082,199.601-72.798l19.682-19.682
		c1.946-3.993,3.67-8.075,5.173-12.213c0.912-2.513,1.749-5.05,2.498-7.612c-108.363-5.485-325.916,20.817-337.355,317.968
		c2.754-0.265,5.498-0.62,8.235-1.063c7.947-1.285,15.788-3.317,23.418-6.09c4.139-1.502,8.22-3.227,12.214-5.174L2203.683,1004.886
		z"/>
	<path style="opacity:0.3;fill-rule:evenodd;clip-rule:evenodd;fill:#013B01;" d="M2626.889,795.216
		c-92.835,76.73-114.118,166.876-105.288,257.32c9.767,18.79,20.878,38.037,33.067,56.508
		c-6.237-48.987-1.323-114.108,40.045-184.422c-0.015-0.037-0.033-0.075-0.048-0.113
		C2565.501,851.593,2626.889,795.216,2626.889,795.216"/>
	<path style="opacity:0.3;fill-rule:evenodd;clip-rule:evenodd;fill:#013B01;" d="M1932.888,2115.661
		c-25.885,21.245-50.881,41.537-74.947,60.883c-34.612,27.816-67.287,53.665-97.887,77.547
		c26.297,34.597,47.335,67.738,63.095,95.003c36.718-28.64,72.922-57.095,107.155-84.322c22.437-17.835,44.022-35.145,64.355-51.628
		C1976.585,2180.896,1955.991,2148.221,1932.888,2115.661"/>
	<path style="opacity:0.3;fill-rule:evenodd;clip-rule:evenodd;fill:#013B01;" d="M1932.888,2115.661
		c23.103,32.56,43.697,65.23,61.772,97.483c15.767-12.78,30.78-25.063,44.845-36.713c11.849-9.813,23.027-19.172,33.42-28.002
		c0,0,8.887-65.127,10.177-164.542c-19.223,20.395-41.008,40.885-65.632,61.555c-13.035,10.945-25.89,21.675-38.552,32.202
		C1963.281,2090.636,1947.936,2103.306,1932.888,2115.661"/>
	<path style="opacity:0.3;fill-rule:evenodd;clip-rule:evenodd;fill:#013B01;" d="M1823.149,2349.094
		c-15.76-27.265-36.798-60.406-63.095-95.003c-185.092,144.471-294.085,216.912-294.085,216.912
		c69.535-13.413,132.743-7.928,188.698,8.23C1708.48,2438.012,1766.428,2393.337,1823.149,2349.094"/>
	<path style="opacity:0.3;fill-rule:evenodd;clip-rule:evenodd;fill:#013B01;" d="M2643.463,2567.957
		c-81.369,111.963-186.693,223.587-316.847,299.413l72.585,75.86c109.511-58.077,186.53-126.992,243.852-195.165
		C2638.601,2683.407,2639.857,2621.531,2643.463,2567.957"/>
	<path style="opacity:0.3;fill-rule:evenodd;clip-rule:evenodd;fill:#013B01;" d="M2141.484,2943.357
		c-28.237,7.007-57.343,12.247-87.325,15.487c-51.481,5.567-99.458,6.228-144.062,3.005l-2.155,97.8
		c56.481,3.595,115.106,1.588,174.818-8.14C2099.031,3013.851,2119.078,2977.685,2141.484,2943.357"/>
	<path style="opacity:0.3;fill-rule:evenodd;clip-rule:evenodd;fill:#013B01;" d="M1784.494,2379.169
		c12.907-10.015,25.815-20.06,38.655-30.075c-15.76-27.265-36.803-60.406-63.095-95.003c-64-84.203-159.131-177.005-285-214.512
		c-49.823,19.233-91.596,44.83-126.594,74.612c172.163-9.608,292.549,79.225,370.395,171.846
		C1745.646,2317.917,1767.401,2350.246,1784.494,2379.169 M1932.888,2115.661c-142.544-200.897-380.645-397.535-712.061-465.175
		c-43.22,16.682-81.057,35.088-114.138,54.765c185.055,9.275,519.78,81.062,787.305,442.166
		c21.963,29.652,43.478,61.253,64.417,94.928c12.448-9.968,24.558-19.72,36.245-29.202
		C1976.585,2180.896,1955.991,2148.221,1932.888,2115.661z"/>
</g>
</svg>
